<svg width="18" height="15" viewBox="0 0 18 15" fill="none" xmlns="http://www.w3.org/2000/svg">
<path d="M8.98955 8.31744C9.02207 7.74255 9.30491 7.23502 9.73289 6.87629C10.1522 6.52366 10.7152 6.30804 11.3333 6.30804C11.9482 6.30804 12.511 6.52352 12.9297 6.87629C13.3584 7.23502 13.6395 7.74255 13.6731 8.31744C13.7056 8.90697 13.4667 9.45719 13.049 9.86471C12.621 10.2781 12.0154 10.5392 11.3333 10.5392C10.6507 10.5392 10.0423 10.2797 9.61702 9.86471C9.19771 9.45732 8.95933 8.91008 8.9928 8.32015L8.98955 8.31744Z" fill="white"/>
<path d="M5.31864 9.53308C5.32243 9.75805 5.39507 10.1958 5.50295 10.5365C5.7309 11.2596 6.11782 11.9287 6.65354 12.515C7.20403 13.1201 7.88328 13.6066 8.66606 13.9529C9.48909 14.3147 10.3825 14.5 11.3094 14.5C12.2364 14.4988 13.1298 14.3103 13.9527 13.9441C14.7355 13.5942 15.415 13.1082 15.9652 12.4998C16.5038 11.907 16.8895 11.2385 17.1159 10.5148C17.2293 10.1553 17.3018 9.78425 17.3321 9.40854C17.3603 9.04398 17.3483 8.67603 17.2964 8.30809C17.1948 7.59913 16.9447 6.91961 16.5623 6.314C16.2135 5.75158 15.7605 5.26235 15.222 4.84859L15.2236 4.84805L9.80879 0.713788C9.80391 0.709994 9.79957 0.706199 9.79469 0.702946C9.43976 0.431629 8.84007 0.432714 8.45166 0.704031C8.05674 0.979278 8.01121 1.43382 8.36276 1.71991L8.36113 1.721L10.6219 3.54839L3.73885 3.5553H3.72963C3.16084 3.55584 2.61306 3.9265 2.50586 4.3973C2.39473 4.87448 2.78165 5.27278 3.37483 5.27278L3.37375 5.27495L6.86157 5.26845L0.620734 10.0104C0.613144 10.0164 0.604471 10.0223 0.596882 10.0283C0.00938938 10.4747 -0.180207 11.2195 0.189771 11.6876C0.566253 12.1649 1.36421 12.1682 1.95794 11.6903L5.35387 8.92431C5.35387 8.92431 5.304 9.29809 5.30834 9.52021L5.31864 9.53308ZM14.068 10.7825C13.3676 11.491 12.3853 11.8951 11.3268 11.8951C10.2655 11.8967 9.28323 11.4997 8.58271 10.7917C8.24038 10.4449 7.98952 10.05 7.83354 9.62741C7.68105 9.21161 7.62224 8.76727 7.66129 8.32611C7.69837 7.89568 7.82671 7.47809 8.03777 7.10112C8.242 6.73331 8.5243 6.39911 8.86988 6.11628C9.55197 5.56632 10.4176 5.26519 11.3228 5.26519C12.2321 5.26411 13.0978 5.55982 13.7799 6.11031C14.1255 6.39152 14.4067 6.7241 14.612 7.09191C14.8235 7.46884 14.9517 7.88675 14.9879 8.31744C15.0264 8.7584 14.9676 9.20244 14.8157 9.61819C14.6602 10.044 14.4088 10.4389 14.0658 10.7857L14.068 10.7825Z" fill="white"/>
</svg>
