<svg width="14" height="15" viewBox="0 0 14 15" fill="none" xmlns="http://www.w3.org/2000/svg">
<path d="M13.1665 4.04244L13.2005 4.01981C13.1326 3.89531 13.0307 3.78213 12.9289 3.72555L7.46241 0.579224C7.37187 0.522635 7.24737 0.5 7.11156 0.5C6.97575 0.5 6.85125 0.533953 6.76071 0.579224L1.32821 3.73686C1.13581 3.85004 1 4.13298 1 4.34802V10.652C1 10.7765 1.02264 10.9123 1.10186 11.0368L1.07922 11.0481C1.13581 11.1386 1.21504 11.2179 1.29426 11.2631L6.74939 14.4208C6.83994 14.4774 6.96443 14.5 7.10024 14.5C7.23605 14.5 7.36055 14.466 7.45109 14.4208L12.8836 11.2631C13.076 11.15 13.2118 10.867 13.2118 10.652V4.3367C13.2231 4.24616 13.2118 4.1443 13.1665 4.04244ZM7.11156 11.9648C4.6443 11.9648 2.64107 9.9616 2.64107 7.49434C2.64107 5.02708 4.6443 3.02385 7.11156 3.02385C8.77526 3.02385 10.2239 3.94058 10.9935 5.28739L9.52223 6.13622C9.04689 5.28739 8.14147 4.7215 7.11156 4.7215C5.58367 4.7215 4.33872 5.96645 4.33872 7.49434C4.33872 9.02223 5.58367 10.2672 7.11156 10.2672C8.14147 10.2672 9.04689 9.70129 9.52223 8.86378L10.9822 9.72393C10.2126 11.0594 8.76395 11.9648 7.11156 11.9648ZM12.8836 7.26799H12.5214L12.4196 7.7207H12.8836V8.28658H12.3177L12.1819 8.96564H11.6273L11.7631 8.28658H11.3331L11.1973 8.96564H10.654L10.7898 8.28658H10.5069V7.7207H10.903L11.0049 7.26799H10.5069V6.7021H11.1067L11.2425 6.02304H11.7971L11.6613 6.7021H12.0913L12.2272 6.02304H12.7704L12.6346 6.7021H12.8836V7.26799ZM11.4462 7.7207H11.8763L11.9782 7.26799H11.5481L11.4462 7.7207Z" fill="white"/>
</svg>
