<svg width="14" height="15" viewBox="0 0 14 15" fill="none" xmlns="http://www.w3.org/2000/svg">
<path d="M1 0.5L2.122 13.0962L7.15657 14.5L12.2052 13.0911L13.3281 0.5H1ZM10.9972 3.38585L10.6237 7.58207L10.6248 7.60472L10.6232 7.65684V7.65639L10.3579 10.5904L10.3286 10.8511L7.16405 11.7264L7.16159 11.7286L4.00246 10.8484L3.78855 8.42265H5.33771L5.44762 9.65613L7.16449 10.1215L7.16405 10.1223V10.1221L8.88728 9.65022L9.06939 7.64155H5.46704L5.43613 7.30199L5.36572 6.50649L5.32878 6.07933H9.20631L9.34735 4.51712H3.44152L3.41061 4.17779L3.34031 3.38206L3.30326 2.95491H11.0341L10.9972 3.38585Z" fill="white"/>
</svg>
