<svg width="22" height="15" viewBox="0 0 22 15" fill="none" xmlns="http://www.w3.org/2000/svg">
<path d="M21.4772 5.39303C20.7284 4.95771 19.7359 4.90547 18.9 5.14925C18.7956 4.24378 18.2035 3.4602 17.507 2.90298L17.2284 2.67662L16.9846 2.95522C16.5145 3.49502 16.3752 4.4005 16.4448 5.09702C16.4971 5.60199 16.6538 6.12438 16.9672 6.54229C16.7234 6.68159 16.4622 6.87313 16.2184 6.9602C15.7309 7.13433 15.1911 7.30846 14.6687 7.30846H13.502V4.85323H11.2383V0.5H8.62641V2.58955H4.27317V4.85323H2.00949V7.29104H0.0592431L0.0244173 7.55224C-0.0626474 8.66667 0.076656 9.74627 0.546805 10.7736L0.738348 11.1567L0.755761 11.1915C2.13138 13.5249 4.53437 14.5 7.16372 14.5C12.2483 14.5 16.4448 12.2189 18.3602 7.43035C19.6488 7.5 20.9722 7.11692 21.599 5.8806L21.7558 5.56716L21.4772 5.39303ZM4.62143 3.11194H6.36273V5.02736H4.62143V3.11194ZM6.90253 10.8085C6.90253 11.1045 6.65875 11.3483 6.36273 11.3483C6.06671 11.3483 5.82293 11.1045 5.82293 10.8085C5.82293 10.5124 6.06671 10.2687 6.36273 10.2687C6.65875 10.2861 6.90253 10.5124 6.90253 10.8085ZM4.62143 5.37562H6.36273V7.29104H4.62143V5.37562ZM2.35775 5.37562H4.27317V7.29104H2.35775V5.37562ZM7.18113 14.1169C4.42989 14.0995 2.94979 13.1766 1.73088 11.9577C2.09656 11.9751 2.44482 11.9925 2.75825 11.9925C3.03685 11.9925 3.31546 11.9925 3.57666 11.9751C4.25576 11.9403 4.8478 11.8532 5.33536 11.7139C5.73586 12.6368 6.4672 13.49 7.77317 14.1169H7.18113ZM8.62641 7.29104H6.71098V5.37562H8.62641V7.29104ZM8.62641 5.02736H6.71098V3.11194H8.62641V5.02736ZM10.8901 7.29104H8.97467V5.37562H10.8901V7.29104ZM10.8901 5.02736H8.97467V3.11194H10.8901V5.02736ZM10.8901 2.76368H8.97467V0.848259H10.8901V2.76368ZM13.1538 7.29104H11.2383V5.37562H13.1538V7.29104ZM6.50203 10.4602C6.4672 10.4428 6.41496 10.4254 6.36273 10.4254C6.15377 10.4254 5.97964 10.5995 5.97964 10.8085C5.97964 11.0174 6.15377 11.1915 6.36273 11.1915C6.57168 11.1915 6.74581 11.0174 6.74581 10.8085C6.74581 10.7562 6.7284 10.704 6.71098 10.6692C6.67616 10.7214 6.64133 10.7562 6.57168 10.7562C6.48462 10.7562 6.41496 10.6866 6.41496 10.5995C6.43238 10.5299 6.4672 10.4776 6.50203 10.4602Z" fill="white"/>
</svg>
