<svg width="14" height="15" viewBox="0 0 14 15" fill="none" xmlns="http://www.w3.org/2000/svg">
<path d="M14 11.4106C13.4908 11.5401 13.1759 11.4161 12.8934 10.9918C12.2591 10.0415 11.5589 9.13474 10.8833 8.21123C10.7962 8.09175 10.7058 7.97449 10.593 7.82597C9.79341 8.9047 8.99498 9.93206 8.24567 11.0007C7.97767 11.3826 7.69626 11.549 7.19598 11.4139L10.2021 7.37929L7.40369 3.73552C7.88498 3.64172 8.21776 3.68974 8.51256 4.12078C9.1636 5.0722 9.88163 5.97784 10.5974 6.93597C11.3177 5.98119 12.0268 5.07444 12.6968 4.13195C12.9659 3.75004 13.2552 3.60487 13.7387 3.74557C13.3724 4.23133 13.014 4.70928 12.6533 5.18387C12.1664 5.82374 11.6884 6.47142 11.1837 7.09789C11.0039 7.32123 11.0329 7.4664 11.1937 7.67745C12.1273 8.9047 13.0497 10.1442 14 11.4106ZM0.00335009 7.31229C0.0837521 6.90917 0.137353 6.49822 0.249023 6.10291C0.91904 3.70984 3.66611 2.71486 5.55332 4.19783C6.65885 5.06774 6.93356 6.29387 6.87884 7.67634H0.647683C0.553881 10.1565 2.33948 11.654 4.6153 10.8902C5.41374 10.6222 5.88386 9.99683 6.11949 9.21514C6.23897 8.82318 6.43663 8.76176 6.80514 8.87343C6.61642 9.85166 6.18872 10.6691 5.29537 11.1805C3.95533 11.9466 2.04243 11.6987 1.03629 10.6345C0.442211 10.0091 0.189838 9.23077 0.0781686 8.3899C0.0614182 8.2559 0.0268007 8.12413 0 7.99124C0.00223339 7.76493 0.00335009 7.53861 0.00335009 7.31229ZM0.65885 7.14591H6.29034C6.25349 5.35249 5.1368 4.07835 3.61027 4.06718C1.93523 4.05378 0.731435 5.29778 0.65885 7.14591Z" fill="white"/>
</svg>
