<svg width="14" height="15" viewBox="0 0 14 15" fill="none" xmlns="http://www.w3.org/2000/svg">
<path d="M6.20683 14.4532C5.99893 14.4284 5.78087 14.3964 5.72242 14.3819C5.6364 14.3615 5.54989 14.3433 5.46295 14.3273C5.36366 14.3081 5.26516 14.285 5.16765 14.2582C4.7148 14.1284 4.68236 14.1178 4.34095 13.9781C4.02685 13.8501 3.44816 13.551 3.25019 13.4149C3.19601 13.3773 3.14531 13.347 3.13756 13.347C3.12991 13.347 3.00318 13.2579 2.85591 13.1489C1.91964 12.456 1.21672 11.6147 0.708816 10.5786C0.621415 10.4006 0.550075 10.2428 0.550075 10.2279C0.550075 10.2133 0.534343 10.1727 0.515115 10.1387C0.475457 10.0678 0.418975 9.91502 0.373417 9.75716C0.35383 9.69008 0.331043 9.62398 0.305136 9.55908C0.283832 9.50883 0.26668 9.44765 0.26668 9.42296C0.26668 9.39816 0.245376 9.31753 0.219374 9.24324C0.193373 9.1695 0.172397 9.08243 0.172397 9.04987C0.172397 9.01753 0.151967 8.90566 0.12673 8.80122C0.0653316 8.54339 0 7.87554 0 7.50125C0 7.12739 0.0653316 6.45955 0.12673 6.20182C0.151858 6.09727 0.172397 5.98332 0.172397 5.94836C0.172397 5.91329 0.188238 5.84458 0.207357 5.79541C0.227022 5.74647 0.25215 5.65852 0.26373 5.60007C0.275748 5.54163 0.30306 5.4409 0.325238 5.37557L0.389696 5.187C0.437001 5.04574 0.48092 4.92622 0.501896 4.87968C0.513913 4.85368 0.560782 4.74749 0.606448 4.6437C0.680301 4.476 0.838605 4.15972 0.93114 3.99421C0.964898 3.93357 0.977681 3.91347 1.16035 3.628C1.44975 3.17483 1.94433 2.61099 2.40471 2.20906C2.56694 2.06736 3.10893 1.65592 3.1333 1.65592C3.14007 1.65592 3.1912 1.62522 3.24725 1.58764C3.39441 1.4891 3.53872 1.40541 3.72685 1.31113C3.79438 1.27773 3.86126 1.24302 3.92744 1.20701C3.95857 1.1891 4.01702 1.16222 4.31713 1.02784C4.38323 0.998345 4.45446 0.971469 4.65974 0.899692C4.70497 0.88396 4.79587 0.850639 4.86076 0.826276C4.92609 0.802022 5.0029 0.78192 5.03152 0.78192C5.05971 0.78192 5.13389 0.762255 5.19627 0.738002C5.25854 0.713639 5.37162 0.685889 5.44798 0.676494C5.52402 0.667535 5.62508 0.646231 5.67249 0.629516C5.71947 0.613347 5.84838 0.592371 5.95884 0.583085C6.10279 0.570079 6.24636 0.553139 6.38939 0.532283C6.68306 0.489239 7.32152 0.489239 7.61212 0.532283C7.74938 0.551981 7.88711 0.568191 8.0252 0.5809C8.12931 0.589531 8.26205 0.611271 8.3205 0.629188C8.37895 0.646668 8.48011 0.668518 8.54501 0.676494C8.6099 0.685125 8.71915 0.712 8.78776 0.736691C8.85659 0.761818 8.93459 0.78192 8.96147 0.78192C8.98835 0.78192 9.04385 0.796888 9.08438 0.815679C9.12535 0.834033 9.21198 0.864732 9.27731 0.88396C9.34221 0.903625 9.45353 0.942409 9.52531 0.971032C9.59654 0.999547 9.69214 1.03713 9.7378 1.05417C9.82193 1.08585 10.4436 1.39689 10.5281 1.44988C11.2143 1.87781 11.5673 2.15738 12.0419 2.6477C12.6141 3.23918 12.994 3.80247 13.3806 4.63168C13.408 4.69024 13.4497 4.77687 13.4736 4.82374C13.4971 4.87116 13.5168 4.92666 13.5168 4.9472C13.5168 4.96795 13.5364 5.03023 13.5607 5.08583C13.6265 5.23693 13.6827 5.40889 13.7093 5.54032C13.7224 5.60477 13.7467 5.68453 13.7633 5.71741C13.7801 5.75018 13.7996 5.83354 13.8074 5.90182C13.815 5.97 13.8376 6.08187 13.8569 6.14971C13.9683 6.53548 14.0237 7.67201 13.9563 8.17467C13.9363 8.32401 13.9137 8.5046 13.906 8.57583C13.8931 8.69787 13.8287 9.01327 13.7736 9.22533L13.7168 9.44983C13.6097 9.88214 13.3451 10.498 13.0221 11.0677C12.894 11.2939 12.4648 11.9055 12.3837 11.9771C12.3764 11.9835 12.3401 12.0263 12.3034 12.0714C12.2667 12.1171 12.149 12.2447 12.0423 12.3548C11.5724 12.84 11.1935 13.14 10.5281 13.5532C10.4492 13.6022 9.78008 13.9291 9.65499 13.9799C9.5901 14.0059 9.48172 14.0498 9.41431 14.0771C9.34734 14.1041 9.27262 14.1267 9.24913 14.1272C9.22564 14.1275 9.1638 14.1485 9.11169 14.1736C9.05969 14.1987 8.99348 14.2197 8.96409 14.2201C8.93503 14.2206 8.85014 14.2411 8.77542 14.2658C8.7008 14.2909 8.59701 14.3179 8.5449 14.3259C8.4929 14.3341 8.38157 14.3563 8.29701 14.3751C8.21256 14.3938 7.95724 14.4306 7.73033 14.4566C7.22415 14.5156 6.71275 14.5145 6.20683 14.4532ZM6.72064 13.0875C6.75341 13.062 6.78717 13.0111 6.79613 12.9753C6.8158 12.8964 9.98995 6.53285 10.0497 6.4531C10.1001 6.38569 10.1048 6.27775 10.0587 6.23973C10.0344 6.21931 9.73048 6.21286 8.91919 6.21417C8.31067 6.21548 7.79905 6.21592 7.78233 6.21548C7.75764 6.21461 7.75251 5.80798 7.75502 4.06631C7.75677 2.88455 7.7512 1.90687 7.74267 1.89332C7.73415 1.87956 7.70083 1.86852 7.66838 1.86852C7.62272 1.86852 7.60141 1.88819 7.57334 1.9568C7.52035 2.0844 7.37395 2.37413 6.66132 3.75779C6.51329 4.04493 6.36562 4.33226 6.21831 4.61977C6.09201 4.8669 5.89274 5.25484 5.77617 5.48176C5.4624 6.09173 5.14929 6.70204 4.83684 7.31268C4.2979 8.36542 4.23268 8.49095 4.20952 8.51869C4.16473 8.57288 4.14037 8.69787 4.1656 8.74484C4.18855 8.78789 4.23432 8.78964 5.37205 8.78789C6.02242 8.78712 6.55884 8.79051 6.56441 8.79554C6.57938 8.81094 6.57381 12.8717 6.5584 12.9685C6.54824 13.032 6.55501 13.0657 6.58408 13.0948C6.63433 13.1451 6.6481 13.1447 6.72064 13.0875Z" fill="white"/>
</svg>
