<svg width="14" height="15" viewBox="0 0 14 15" fill="none" xmlns="http://www.w3.org/2000/svg">
<path d="M4.33333 14.5C5.62481 14.5 6.66667 13.4581 6.66667 12.1667V9.83333H4.33333C3.04186 9.83333 2 10.8752 2 12.1667C2 13.4581 3.04186 14.5 4.33333 14.5ZM2 7.5C2 6.20853 3.04186 5.16667 4.33333 5.16667H6.66667V9.83333H4.33333C3.04186 9.83333 2 8.79147 2 7.5ZM2 2.83333C2 1.54186 3.04186 0.5 4.33333 0.5H6.66667V5.16667H4.33333C3.04186 5.16667 2 4.12481 2 2.83333ZM6.66667 0.5H9C10.2915 0.5 11.3333 1.54186 11.3333 2.83333C11.3333 4.12481 10.2915 5.16667 9 5.16667H6.66667V0.5ZM11.3333 7.5C11.3333 8.79147 10.2915 9.83333 9 9.83333C7.70853 9.83333 6.66667 8.79147 6.66667 7.5C6.66667 6.20853 7.70853 5.16667 9 5.16667C10.2915 5.16667 11.3333 6.20853 11.3333 7.5Z" fill="white"/>
</svg>
