<svg width="14" height="14" viewBox="0 0 14 14" fill="none" xmlns="http://www.w3.org/2000/svg">
<path d="M13.7394 6.37644L7.62664 0.26401C7.27485 -0.0880032 6.70391 -0.0880032 6.35157 0.26401L5.08248 1.53343L6.6926 3.14355C7.06691 3.01723 7.49589 3.10196 7.79411 3.40019C7.93624 3.54243 8.03546 3.72181 8.08043 3.9178C8.1254 4.11379 8.11431 4.31848 8.04842 4.50846L9.6002 6.06047C9.97561 5.93104 10.4089 6.01466 10.7086 6.31499C11.1278 6.73388 11.1278 7.41295 10.7086 7.83207C10.609 7.93174 10.4907 8.01081 10.3605 8.06475C10.2303 8.1187 10.0908 8.14646 9.94983 8.14646C9.80891 8.14646 9.66936 8.1187 9.53917 8.06475C9.40898 8.01081 9.2907 7.93174 9.19107 7.83207C9.04139 7.68229 8.93936 7.49159 8.89782 7.28397C8.85628 7.07634 8.87708 6.86106 8.95762 6.66523L7.51053 5.21803L7.5103 9.02663C7.6153 9.07833 7.71116 9.14681 7.79411 9.22936C8.21322 9.64825 8.21322 10.3271 7.79411 10.7469C7.375 11.1658 6.69571 11.1658 6.27704 10.7469C5.85804 10.3272 5.82366 9.64836 6.24255 9.22936C6.34613 9.12589 6.44828 9.0477 6.55918 8.99535V5.15149C6.44828 5.09914 6.34624 5.02151 6.24244 4.91737C5.92514 4.60018 5.8658 4.13438 6.02861 3.74443L4.4501 2.15705L0.262986 6.34816C-0.0891374 6.7005 -0.0869193 7.27144 0.265205 7.62356L6.37896 13.736C6.73086 14.088 7.30225 14.088 7.6547 13.736L13.739 7.65196C14.0911 7.29972 14.0914 6.72845 13.7394 6.37644Z" fill="white"/>
</svg>
