<svg width="15" height="14" viewBox="0 0 15 14" fill="none" xmlns="http://www.w3.org/2000/svg">
<path fill-rule="evenodd" clip-rule="evenodd" d="M7.17722 0C3.21387 0 0 3.21316 0 7.17722C0 10.3484 2.05649 13.0386 4.90822 13.9878C5.2668 14.0543 5.39849 13.8321 5.39849 13.6425C5.39849 13.4714 5.39183 12.906 5.38874 12.3063C3.39203 12.7404 2.9707 11.4595 2.9707 11.4595C2.64421 10.6299 2.1738 10.4093 2.1738 10.4093C1.52249 9.96382 2.22288 9.97309 2.22288 9.97309C2.94348 10.0236 3.3231 10.7127 3.3231 10.7127C3.96323 11.8097 5.00211 11.4926 5.41168 11.3093C5.4761 10.8455 5.6621 10.5287 5.86736 10.3495C4.2732 10.1682 2.59727 9.55271 2.59727 6.8026C2.59727 6.01901 2.87776 5.37876 3.33688 4.87601C3.26224 4.69536 3.01658 3.96537 3.40629 2.97676C3.40629 2.97676 4.00887 2.78386 5.38042 3.71245C5.95305 3.55331 6.56715 3.47332 7.17722 3.47059C7.78693 3.47332 8.40139 3.55307 8.97509 3.71222C10.345 2.78363 10.9468 2.97652 10.9468 2.97652C11.3375 3.96501 11.0918 4.69512 11.0173 4.87577C11.4775 5.37852 11.756 6.01877 11.756 6.80236C11.756 9.55901 10.077 10.1659 8.47877 10.3437C8.73632 10.5664 8.9657 11.0033 8.9657 11.6728C8.9657 12.6331 8.95738 13.406 8.95738 13.6424C8.95738 13.8334 9.08669 14.0572 9.45038 13.9867C12.3004 13.0366 14.3546 10.3472 14.3546 7.17722C14.3544 3.21339 11.1409 0 7.17722 0Z" fill="white"/>
<path d="M2.71838 10.3048C2.70257 10.3405 2.64647 10.3512 2.59537 10.3268C2.54307 10.3035 2.51395 10.2549 2.53083 10.2191C2.54628 10.1823 2.6025 10.1722 2.65444 10.1968C2.70673 10.2202 2.73644 10.2693 2.71826 10.3049L2.71838 10.3048ZM3.00909 10.6292C2.97498 10.6609 2.90807 10.6461 2.86266 10.5959C2.8156 10.546 2.8068 10.479 2.84163 10.4468C2.87704 10.4152 2.94194 10.4302 2.989 10.4801C3.03583 10.5307 3.0451 10.5971 3.00921 10.6293L3.00909 10.6292ZM3.29219 11.0424C3.24822 11.0731 3.17619 11.0444 3.13174 10.9806C3.08777 10.9167 3.08777 10.84 3.13293 10.8095C3.17726 10.7788 3.24822 10.8065 3.29338 10.8697C3.33712 10.9345 3.33712 11.0113 3.29219 11.0424ZM3.67977 11.4419C3.64055 11.4852 3.55664 11.4736 3.49531 11.4145C3.43268 11.3566 3.41521 11.2743 3.45455 11.231C3.49448 11.1875 3.57875 11.1996 3.64043 11.2584C3.70306 11.3161 3.72196 11.3986 3.68001 11.4417L3.67977 11.4419ZM4.2146 11.6737C4.19713 11.73 4.11655 11.7555 4.03514 11.7315C3.95396 11.7069 3.90083 11.6412 3.91747 11.5844C3.93411 11.5277 4.01529 11.5012 4.09718 11.5267C4.17835 11.5512 4.23148 11.6166 4.2146 11.6737ZM4.80209 11.7166C4.80411 11.7758 4.73517 11.8248 4.64996 11.826C4.56403 11.828 4.4945 11.78 4.49367 11.7218C4.49367 11.662 4.56117 11.6136 4.64699 11.6119C4.7322 11.6104 4.80221 11.6579 4.80221 11.7165L4.80209 11.7166ZM5.34857 11.6237C5.35879 11.6813 5.29948 11.7407 5.21474 11.7565C5.13154 11.7719 5.05429 11.736 5.04359 11.6789C5.03337 11.6197 5.09375 11.5604 5.17695 11.545C5.26181 11.5304 5.33787 11.5651 5.34857 11.6237Z" fill="white"/>
</svg>
