<svg width="14" height="15" viewBox="0 0 14 15" fill="none" xmlns="http://www.w3.org/2000/svg">
<path d="M0 0.5V14.5H14V0.5H0ZM7.40533 12.4295C7.19869 12.8493 6.80422 13.1252 6.34715 13.2584C5.6448 13.4196 4.97302 13.3277 4.47328 13.0278C4.13885 12.8226 3.87766 12.5067 3.70037 12.1428L4.76661 11.4899C4.7759 11.4938 4.8039 11.5444 4.84131 11.6098C4.97728 11.8376 5.09454 11.9989 5.32504 12.1122C5.5515 12.1894 6.04867 12.2388 6.24064 11.8403C6.3579 11.6376 6.32061 10.986 6.32061 10.2651C6.3205 9.13218 6.32576 8.004 6.32576 6.884H7.63717C7.63717 8.116 7.64389 9.28282 7.63717 10.485C7.63997 11.222 7.70392 11.879 7.40533 12.4295ZM12.8456 12.059C12.3898 13.6182 9.84827 13.6688 8.83266 12.6387C8.61806 12.3962 8.48355 12.2695 8.35554 11.9896C8.89526 11.6792 8.89526 11.6792 9.42043 11.3753C9.7057 11.8138 9.96946 12.0549 10.444 12.1536C11.0878 12.2322 11.7355 12.011 11.5902 11.3273C11.4409 10.7688 10.272 10.633 9.47643 10.0358C8.6688 9.49338 8.47952 8.17536 9.14323 7.42227C9.36443 7.14373 9.74165 6.93586 10.1375 6.83595L10.5505 6.78253C11.3436 6.76651 11.8393 6.97595 12.2032 7.38229C12.3044 7.48488 12.3871 7.59554 12.5416 7.83533C12.1192 8.10458 12.1205 8.102 11.5154 8.49378C11.3861 8.21534 11.1717 8.04062 10.945 7.96469C10.5931 7.85806 10.1493 7.97398 10.0573 8.34582C10.0253 8.4604 10.032 8.56702 10.0827 8.7563C10.2253 9.08144 10.7037 9.22278 11.1329 9.42002C12.3684 9.9211 12.7856 10.4584 12.8882 11.0979C12.987 11.6485 12.8643 12.0056 12.8456 12.059Z" fill="white"/>
</svg>
