<svg width="14" height="15" viewBox="0 0 14 15" fill="none" xmlns="http://www.w3.org/2000/svg">
<path fill-rule="evenodd" clip-rule="evenodd" d="M10.2654 6.70892C10.2218 6.14487 10.0892 5.60095 9.90483 5.06811C9.52283 3.8783 8.90979 2.82533 8.04629 1.91931C7.82797 1.69016 7.58516 1.4802 7.4329 1.195C7.33658 1.01459 7.24484 0.831718 7.15099 0.649903L7.09153 0.5C7.08152 0.534385 7.07516 0.546631 7.0748 0.558996C7.06715 0.855387 6.89923 1.0564 6.6901 1.24398C6.45494 1.45512 6.23603 1.68427 6.01006 1.90553L5.31518 2.81967C5.12771 3.16411 4.94048 3.50855 4.75325 3.85298L4.37761 4.86768L4.3663 4.88346C4.15952 5.56268 4.05754 6.26097 4.00738 6.96633C3.98854 7.2314 4.00997 7.50035 4.02493 7.76683C4.04624 8.14778 4.11242 8.52224 4.21169 8.89081C4.57226 10.2299 5.30399 11.3407 6.30433 12.2844C6.49026 12.4598 6.68103 12.6192 6.87509 12.7861C6.9083 12.6724 6.93479 12.5588 6.96494 12.4452C6.99508 12.332 7.02558 12.2194 7.04595 12.1059C7.02546 12.2194 7.0025 12.332 6.97978 12.4452L6.88251 12.7861L6.96941 13.0806L7.04996 13.5379L7.08835 14.0152C7.08799 14.1121 7.08411 14.2093 7.08999 14.3061C7.09141 14.3308 7.12391 14.3536 7.14204 14.3774L7.30408 14.4343L7.47294 14.5L7.44397 14.0757L7.44267 13.6579L7.50096 13.0215L7.54324 12.8829L7.66417 12.6685C7.81349 12.5484 7.97375 12.4394 8.10976 12.3057C8.35587 12.0639 8.60139 11.8189 8.8216 11.5541C9.10821 11.2108 9.35294 10.8347 9.55062 10.4335C9.68274 10.1646 9.80709 9.89021 9.91001 9.60913C10.0007 9.36137 10.0569 9.10101 10.1283 8.84619C10.1347 8.82782 10.1432 8.8098 10.1472 8.79108C10.2948 8.10326 10.3197 7.4085 10.2654 6.70892Z" fill="white"/>
</svg>
