<svg width="15" height="15" viewBox="0 0 15 15" fill="none" xmlns="http://www.w3.org/2000/svg">
<path d="M8.96655 0.540173C7.93042 0.71273 7.06046 1.13794 6.40949 1.78872C5.63896 2.55924 5.24723 3.4824 5.11432 4.85069C5.05454 5.47496 5.02127 7.93259 5.07447 7.93259C5.08782 7.93259 5.21395 7.88597 5.35343 7.82619C5.67882 7.68671 6.38299 7.68671 6.74823 7.81962L7.02718 7.91924L7.06046 6.31862C7.09354 4.61158 7.13339 4.35255 7.4522 3.71493C7.67138 3.28992 8.2028 2.79177 8.65451 2.58574C9.17258 2.34663 9.92976 2.25378 10.5142 2.34663C11.7629 2.55267 12.5067 3.23014 12.819 4.43883C12.9451 4.92382 12.9517 5.17608 12.9517 7.84612V10.7222H14.9576L14.9243 7.58051C14.9044 4.61158 14.8912 4.41233 14.7518 3.88091C14.3732 2.40641 13.4566 1.3372 12.1746 0.852209C11.4905 0.593175 10.8396 0.493547 9.94291 0.500322C9.49797 0.506897 9.0596 0.526823 8.96655 0.540173Z" fill="white"/>
<path d="M0.876729 5.44846C0.30566 5.734 0 6.24549 0 6.93631C0 7.15549 0.0398511 7.43445 0.0930527 7.56058C0.219182 7.87282 0.577844 8.25141 0.890079 8.41739C1.26867 8.61664 1.98599 8.61664 2.358 8.42396L2.63019 8.28448L3.48042 8.86233L4.33064 9.44695V10.3302L3.48042 10.9147L2.62361 11.4993L2.40443 11.3664C2.08562 11.1805 1.46792 11.1406 1.08934 11.2867C0.690823 11.4395 0.278959 11.8047 0.126328 12.1501C-0.0398516 12.5021 -0.0398516 13.193 0.126328 13.5449C0.265808 13.8571 0.591195 14.2024 0.883504 14.3552C1.00306 14.415 1.28859 14.4748 1.5277 14.4947C2.08562 14.5346 2.55726 14.3487 2.896 13.9501C3.16818 13.6313 3.34751 13.0734 3.30109 12.6881L3.26781 12.4159L4.98142 11.2602L5.28708 11.3997C5.75194 11.5989 6.44276 11.5523 6.88113 11.2867C7.35935 10.9878 7.59845 10.5628 7.62495 9.96501C7.64488 9.54657 7.62495 9.45352 7.45897 9.12813C7.02718 8.30441 6.06418 7.99237 5.24045 8.40404L4.99477 8.52359L3.30766 7.3679L3.28773 6.90304C3.27458 6.34512 3.11518 5.98645 2.72324 5.66107C2.2251 5.23585 1.48127 5.14958 0.876729 5.44846Z" fill="white"/>
</svg>
