<svg width="15" height="15" viewBox="0 0 15 15" fill="none" xmlns="http://www.w3.org/2000/svg">
<path d="M8.2902 0.5C8.19137 0.5 8.09255 0.521961 8.00471 0.554902C8.19137 0.675686 8.2902 0.840392 8.3451 1.02706C8.3451 1.04902 8.35608 1.07098 8.35608 1.09294C8.35608 1.1149 8.36706 1.13686 8.36706 1.15882C8.37804 1.47725 8.27921 1.52118 8.21333 1.70784C8.10353 1.94941 8.13647 2.21294 8.26824 2.42157C8.27921 2.44353 8.2902 2.47647 8.31216 2.49843C8.16941 1.57608 8.93804 1.44431 9.08078 1.15882C9.09176 0.906275 8.88314 0.741569 8.71843 0.620784C8.55373 0.521961 8.42196 0.5 8.2902 0.5ZM9.44314 0.697647C9.43216 0.78549 9.44314 0.763529 9.43216 0.807451C9.43216 0.840392 9.43216 0.873333 9.42118 0.906275C9.4102 0.939216 9.4102 0.961176 9.39922 0.994118C9.38824 1.02706 9.37725 1.04902 9.36627 1.08196C9.35529 1.10392 9.34431 1.12588 9.33333 1.15882C9.32235 1.1698 9.31137 1.19176 9.30039 1.20275C9.28941 1.21373 9.28941 1.22471 9.27843 1.23569C9.25647 1.25765 9.24549 1.29059 9.22353 1.31255L9.15765 1.37843C9.13569 1.40039 9.11372 1.42235 9.09176 1.43333C9.0149 1.48824 8.92706 1.53216 8.8502 1.58706C8.82824 1.60902 8.79529 1.62 8.77333 1.64196C8.75137 1.66392 8.72941 1.6749 8.70745 1.69686L8.64157 1.76275C8.61961 1.78471 8.59765 1.80667 8.58667 1.83961C8.56471 1.86157 8.55373 1.89451 8.53176 1.91647C8.52078 1.94941 8.5098 1.97137 8.48784 2.00431C8.47686 2.03725 8.46588 2.05922 8.4549 2.09216C8.44392 2.1251 8.43294 2.15804 8.43294 2.18C8.43294 2.19098 8.43294 2.21294 8.42196 2.22392C8.42196 2.2349 8.42196 2.25686 8.41098 2.26784V2.42157C8.41098 2.45451 8.41098 2.47647 8.42196 2.50941C8.42196 2.54235 8.43294 2.56431 8.44392 2.59725C8.4549 2.6302 8.46588 2.65216 8.47686 2.6851C8.48784 2.70706 8.49882 2.71804 8.49882 2.74L7.66431 2.42157C7.52157 2.37765 7.3898 2.34471 7.24706 2.31176C7.1702 2.2898 7.09333 2.27882 7.01647 2.25686C6.79686 2.21294 6.57725 2.18 6.35765 2.15804H6.33569C6.11608 2.13608 5.90745 2.1251 5.68784 2.1251C5.52314 2.1251 5.36941 2.13608 5.21569 2.14706C4.99608 2.15804 4.77647 2.19098 4.55686 2.22392L4.39216 2.25686C4.28235 2.27882 4.17255 2.30078 4.06275 2.33373C4.00784 2.34471 3.95294 2.36667 3.89804 2.37765C3.84314 2.39961 3.78824 2.42157 3.74431 2.44353C3.70039 2.46549 3.66745 2.47647 3.62353 2.49843C3.61255 2.49843 3.61255 2.49843 3.60157 2.50941C3.56863 2.53137 3.53569 2.54235 3.50275 2.56431C3.49176 2.56431 3.48078 2.57529 3.48078 2.57529C3.43686 2.59725 3.40392 2.61922 3.37098 2.6302C3.34902 2.64118 3.31608 2.65216 3.29412 2.66314C3.28314 2.67412 3.27216 2.67412 3.26118 2.6851C3.22824 2.70706 3.19529 2.71804 3.16235 2.74C3.12941 2.76196 3.09647 2.77294 3.07451 2.7949C3.05255 2.81686 3.01961 2.82784 2.99765 2.8498C2.99765 2.8498 2.98667 2.8498 2.98667 2.86078C2.96471 2.87176 2.94275 2.89373 2.92078 2.91569L2.9098 2.92667C2.88784 2.93765 2.87686 2.95961 2.8549 2.97059C2.84392 2.97059 2.84392 2.98157 2.83294 2.98157C2.81098 2.99255 2.8 3.01451 2.77804 3.02549C2.77804 3.03647 2.76706 3.03647 2.76706 3.03647L2.70118 3.10235L2.6902 3.11333L2.62431 3.17922C2.62431 3.17922 2.62431 3.1902 2.61333 3.1902L2.55843 3.2451C2.54745 3.25608 2.53647 3.25608 2.53647 3.26706L2.47059 3.33294C2.47059 3.34392 2.45961 3.34392 2.45961 3.3549L2.37176 3.44275L2.36078 3.45373C2.30588 3.51961 2.24 3.57451 2.17412 3.62941C2.10824 3.68431 2.04235 3.73922 1.96549 3.79412C1.88863 3.84902 1.82275 3.89294 1.74588 3.93686C1.66902 3.98078 1.59216 4.01373 1.51529 4.04667C1.43843 4.07961 1.36157 4.11255 1.28471 4.13451C1.13098 4.16745 0.977255 4.23333 0.84549 4.24431C0.84549 4.18941 0.812549 4.20039 0.779608 4.20039C0.746667 4.21137 0.713725 4.21137 0.691765 4.22235C0.658823 4.23333 0.636863 4.24431 0.603922 4.25529C0.57098 4.26627 0.54902 4.27726 0.516078 4.29922C0.494118 4.32118 0.461176 4.33216 0.439216 4.35412C0.417255 4.37608 0.384314 4.39804 0.362353 4.42C0.340392 4.44196 0.307451 4.46392 0.28549 4.48588C0.263529 4.50784 0.241569 4.5298 0.219608 4.56275C0.197647 4.59569 0.175686 4.61765 0.164706 4.65059C0.142745 4.67255 0.131765 4.70549 0.109804 4.73843C0.0988235 4.77137 0.0768627 4.80431 0.0658824 4.83726L0.0329412 4.93608C0.0219608 4.96902 0.0219608 4.99098 0.0109804 5.02392V5.0349C0 5.06784 0 5.11176 0 5.13373C0.0109804 5.12275 0.0109804 5.14471 0.0109804 5.16667V5.21059C0.0109804 5.23255 0.0219608 5.25451 0.0219608 5.27647C0.0329412 5.29843 0.0329412 5.32039 0.0439216 5.34235C0.054902 5.36431 0.0658824 5.38627 0.0878431 5.40824C0.0988235 5.4302 0.120784 5.45216 0.131765 5.47412C0.153725 5.49608 0.175686 5.51804 0.197647 5.52902C0.219608 5.55098 0.241569 5.57294 0.263529 5.58392C0.351373 5.66078 0.373333 5.68274 0.483137 5.74863C0.505098 5.75961 0.516078 5.77059 0.538039 5.78157H0.54902V5.80353C0.54902 5.83647 0.56 5.85843 0.57098 5.89137C0.581961 5.92431 0.592941 5.95725 0.603922 5.97922L0.636863 6.0451C0.636863 6.05608 0.647843 6.05608 0.647843 6.06706C0.658824 6.1 0.680784 6.12196 0.691765 6.14392C0.713725 6.16588 0.724706 6.19882 0.746667 6.22078L0.812549 6.28667L0.878431 6.35255H0.889412C0.911373 6.37451 0.933333 6.38549 0.955294 6.40745C0.977255 6.42941 1.0102 6.44039 1.03216 6.45137C1.05412 6.46235 1.08706 6.48431 1.12 6.49529C1.14196 6.50627 1.16392 6.51725 1.19686 6.51725C1.19686 6.51725 1.20784 6.51726 1.20784 6.52824C1.21882 6.52824 1.24078 6.53922 1.25176 6.53922C1.24078 6.73686 1.24078 6.92353 1.26275 6.98941C1.29569 7.06627 1.46039 6.83569 1.61412 6.58314C1.59216 6.83569 1.58118 7.13216 1.61412 7.22C1.65804 7.30784 1.86667 7.02235 2.06431 6.7149C4.63373 6.12196 6.98353 7.90078 7.23608 10.4153C7.19216 10.02 6.70902 9.80039 6.47843 9.85529C6.36863 10.1188 6.18196 10.4702 5.88549 10.6788C5.90745 10.4373 5.89647 10.1957 5.85255 9.95412C5.77569 10.2835 5.62196 10.602 5.40235 10.8655C5.06196 10.8875 4.71059 10.7227 4.5349 10.4702C4.52392 10.4592 4.51294 10.4373 4.50196 10.4263C4.49098 10.4043 4.48 10.3714 4.46902 10.3494C4.45804 10.3275 4.44706 10.2945 4.44706 10.2725V10.1957V10.1408C4.44706 10.1188 4.45804 10.0859 4.46902 10.0639C4.48 10.042 4.48 10.009 4.49098 9.98706C4.50196 9.9651 4.51294 9.93216 4.5349 9.9102C4.60078 9.73451 4.60078 9.59176 4.48 9.5149L4.41412 9.48196C4.40314 9.48196 4.38118 9.47098 4.3702 9.47098C4.35922 9.47098 4.34824 9.46 4.33726 9.46C4.31529 9.44902 4.28235 9.44902 4.26039 9.43804C4.23843 9.42706 4.20549 9.42706 4.18353 9.42706C4.16157 9.42706 4.12863 9.41608 4.10667 9.41608H4.05176C4.01882 9.41608 3.99686 9.41608 3.9749 9.42706C3.95294 9.42706 3.92 9.43804 3.89804 9.43804C3.87608 9.44902 3.84314 9.44902 3.82118 9.46C3.79922 9.47098 3.77725 9.48196 3.74431 9.49294L3.67843 9.52588C2.83294 10.0749 3.33804 11.3706 3.90902 11.7439C3.68941 11.7878 3.4698 11.8318 3.40392 11.8757L3.39294 11.8867C3.54667 11.9855 3.71137 12.0624 3.88706 12.1282C4.11765 12.2051 4.3702 12.271 4.48 12.3039C4.77647 12.3698 5.08392 12.3918 5.39137 12.3698C6.99451 12.26 8.31216 11.0302 8.55373 9.42706C8.56471 9.46 8.56471 9.49294 8.57569 9.52588C8.58667 9.59176 8.59765 9.65765 8.60863 9.73451C8.61961 9.76745 8.61961 9.80039 8.61961 9.83333V9.84431C8.61961 9.87725 8.63059 9.9102 8.63059 9.94314C8.63059 9.98706 8.64157 10.02 8.64157 10.0639V10.5251C8.64157 10.558 8.63059 10.58 8.63059 10.6129V10.6459C8.63059 10.6788 8.61961 10.7118 8.61961 10.7557C8.60863 10.7886 8.60863 10.8216 8.59765 10.8545V10.8655C8.58667 10.8984 8.58667 10.9314 8.57569 10.9643V10.9753C8.56471 11.0082 8.56471 11.0412 8.55373 11.0741V11.0851L8.52078 11.1839V11.1949C8.5098 11.2278 8.49882 11.2718 8.48784 11.3047C8.47686 11.3376 8.46588 11.3706 8.44392 11.4145C8.43294 11.4475 8.42196 11.4914 8.4 11.5243C8.38902 11.5573 8.36706 11.5902 8.35608 11.6341C8.3451 11.6671 8.32314 11.7 8.31216 11.7329C8.31216 11.7439 8.30118 11.7549 8.30118 11.7549C8.30118 11.7549 8.30118 11.7659 8.2902 11.7659C8.05961 12.238 7.70823 12.6553 7.26902 12.9847C7.23608 13.0067 7.21412 13.0286 7.18118 13.0506C7.1702 13.0616 7.15922 13.0616 7.15922 13.0725C7.13725 13.0945 7.10431 13.1055 7.08235 13.1275L7.09333 13.1494C7.14824 13.1384 7.19216 13.1384 7.24706 13.1275C7.34588 13.1165 7.43373 13.0945 7.53255 13.0725C7.55451 13.0725 7.58745 13.0616 7.60941 13.0506C7.63137 13.0506 7.64235 13.0396 7.66431 13.0396C7.68627 13.0396 7.71922 13.0286 7.74118 13.0286C7.76314 13.0176 7.7851 13.0176 7.80706 13.0067C8.16941 12.9188 8.52078 12.798 8.86118 12.6553C8.27922 13.4459 7.51059 14.0827 6.6102 14.5C7.02745 14.4671 7.44471 14.4012 7.85098 14.2804C9.31137 13.8522 10.5412 12.8639 11.2769 11.5353C11.1231 12.3698 10.7937 13.1714 10.2996 13.8741C10.651 13.6435 10.9694 13.369 11.2659 13.0725C12.0784 12.2271 12.6165 11.14 12.7922 9.98706C12.9129 10.558 12.9569 11.151 12.902 11.7329C15.5263 8.07647 13.1216 4.28824 12.1114 3.28902C12.1114 3.27804 12.1004 3.27804 12.1004 3.26706C12.1004 3.31098 12.1004 3.3549 12.0894 3.39882C12.0784 3.48667 12.0675 3.56353 12.0565 3.64039C12.0345 3.71725 12.0125 3.8051 11.9906 3.88196C11.9686 3.95882 11.9357 4.03569 11.9027 4.11255C11.8698 4.18941 11.8369 4.26627 11.7929 4.33216C11.749 4.39804 11.7051 4.4749 11.6612 4.54078C11.6173 4.60667 11.5624 4.67255 11.5075 4.73843C11.4525 4.80431 11.3976 4.85922 11.3318 4.9251C11.2988 4.95804 11.2659 4.99098 11.222 5.01294C11.189 5.0349 11.1671 5.05686 11.1341 5.0898C11.0682 5.14471 11.0024 5.18863 10.9255 5.23255C10.8596 5.27647 10.7827 5.32039 10.7059 5.35333L10.4753 5.45216C10.3984 5.4851 10.3216 5.50706 10.2447 5.52902C10.1678 5.55098 10.08 5.57294 10.0031 5.58392C9.91529 5.5949 9.83843 5.60588 9.76157 5.61686C9.70667 5.61686 9.64078 5.62784 9.58588 5.62784C9.49804 5.62784 9.42118 5.61686 9.34431 5.61686C9.25647 5.60588 9.17961 5.5949 9.10275 5.58392C9.0149 5.57294 8.93804 5.55098 8.86118 5.51804C8.93804 5.50706 9.02588 5.50706 9.10275 5.4851C9.19059 5.47412 9.26745 5.45216 9.34431 5.4302C9.42118 5.40824 9.50902 5.38627 9.5749 5.35333L9.80549 5.25451C9.88235 5.22157 9.94823 5.17765 10.0251 5.13373C10.091 5.0898 10.1678 5.0349 10.2337 4.99098C10.2996 4.93608 10.3655 4.88118 10.4204 4.82627C10.4863 4.77137 10.5412 4.70549 10.5961 4.65059C10.651 4.58471 10.7059 4.51882 10.7498 4.45294C10.7608 4.44196 10.7608 4.43098 10.7718 4.42C10.8047 4.3651 10.8486 4.29922 10.8816 4.24431C10.9255 4.16745 10.9584 4.10157 10.9914 4.02471C11.0243 3.94784 11.0573 3.87098 11.0792 3.79412L11.1451 3.56353C11.1561 3.47569 11.178 3.39882 11.178 3.32196C11.189 3.23412 11.189 3.15725 11.189 3.08039C11.189 3.02549 11.189 2.95961 11.178 2.90471C11.1671 2.81686 11.1561 2.74 11.1451 2.66314C11.1341 2.57529 11.1122 2.49843 11.0902 2.42157C11.0682 2.34471 11.0353 2.26784 11.0133 2.19098C10.9804 2.11412 10.9475 2.03725 10.9145 1.97137C10.8706 1.89451 10.8376 1.82863 10.7937 1.75176C10.7498 1.68588 10.6949 1.62 10.651 1.55412C10.5961 1.48824 10.5412 1.43333 10.4863 1.36745C10.4533 1.33451 10.4204 1.30157 10.3875 1.27961C10.2227 1.14784 10.058 1.03804 9.88235 0.928235C9.86039 0.917255 9.83843 0.906275 9.80549 0.895294C9.66274 0.77451 9.55294 0.741569 9.44314 0.697647Z" fill="white"/>
</svg>
