<svg width="14" height="15" viewBox="0 0 14 15" fill="none" xmlns="http://www.w3.org/2000/svg">
<path d="M12.8881 3.60209L7.77718 0.637547C7.4552 0.454151 7.03341 0.454151 6.70888 0.637547L1.55806 3.60209C1.22589 3.79325 1 4.15251 1 4.53678V10.458C1 10.8423 1.23063 11.2017 1.56292 11.3939L2.92091 12.1682C3.5724 12.4891 3.7529 12.4891 4.0493 12.4891C5.01421 12.4891 5.5153 11.9057 5.5153 10.8881V5.0424C5.51542 4.95984 5.56694 4.837 5.48578 4.837H4.83486C4.75243 4.837 4.58918 4.95984 4.58918 5.04228V10.888C4.58918 11.3391 4.17052 11.788 3.40799 11.4067L2.00451 10.5947C1.95565 10.5681 1.92624 10.5145 1.92624 10.458V4.53678C1.92624 4.48098 1.97985 4.42494 2.0294 4.39634L7.16748 1.43689C7.19271 1.42349 7.22083 1.41648 7.2494 1.41648C7.27796 1.41648 7.30609 1.42349 7.33131 1.43689L12.4213 4.39565C12.4701 4.42494 12.4623 4.47924 12.4623 4.53678V10.458C12.4623 10.5145 12.473 10.5695 12.4249 10.5967L7.31522 13.5579C7.27145 13.5842 7.21449 13.5842 7.16644 13.5579L5.85616 12.7765C5.81668 12.7536 5.76909 12.7454 5.73112 12.7665C5.36699 12.973 5.29937 13.0004 4.95782 13.1189C4.87365 13.1482 4.74953 13.199 5.00506 13.3422L6.71837 14.3557C6.88194 14.4502 7.0675 14.5 7.2564 14.5C7.44604 14.5003 7.63239 14.4505 7.79663 14.3557L12.8882 11.3939C13.2206 11.2003 13.3886 10.8423 13.3886 10.458V4.53678C13.3885 4.15251 13.2205 3.79417 12.8881 3.60209ZM8.84143 9.51972C7.48368 9.51972 7.18473 9.14517 7.08505 8.47006C7.07324 8.39735 7.01164 8.3104 6.93754 8.3104H6.27413C6.19204 8.3104 6.12593 8.40997 6.12593 8.49171C6.12593 9.35613 6.59599 10.4035 8.84143 10.4035C10.4667 10.4035 11.3988 9.77189 11.3988 8.65415C11.3988 7.54591 10.65 7.25507 9.07368 7.04643C7.48032 6.83583 7.31846 6.72943 7.31846 6.35615C7.31846 6.04841 7.45554 5.63797 8.63534 5.63797C9.6894 5.63797 10.078 5.8642 10.2379 6.57474C10.2516 6.64155 10.3126 6.68948 10.3815 6.68948H11.0477C11.0887 6.68948 11.1277 6.67292 11.1565 6.64363C11.1844 6.61214 11.1989 6.57266 11.1954 6.53028C11.092 5.30661 10.2792 4.73639 8.63523 4.73639C7.17269 4.73639 6.30041 5.35396 6.30041 6.38915C6.30041 7.51198 7.16841 7.82227 8.57224 7.96109C10.2516 8.12573 10.3822 8.37119 10.3822 8.70151C10.3822 9.27531 9.92166 9.51972 8.84143 9.51972Z" fill="white"/>
</svg>
