<svg width="14" height="15" viewBox="0 0 14 15" fill="none" xmlns="http://www.w3.org/2000/svg">
<path d="M5.24515 7.27115H8.58113C9.50976 7.27115 10.2413 6.48541 10.2413 5.55288V2.37261C10.2413 1.46743 9.48253 0.787397 8.57609 0.63638C8.00246 0.540851 7.40972 0.497376 6.8386 0.500122C6.26771 0.502754 5.73893 0.551376 5.25922 0.63638C3.84573 0.885901 3.6057 1.40874 3.6057 2.37261V3.61015H6.92349V4.06777H2.32161C1.35098 4.06777 0.500942 4.65216 0.235176 5.76225C-0.0715478 7.03445 -0.0851622 7.81229 0.235176 9.14067C0.472569 10.1294 1.03945 10.8178 2.01019 10.8178H3.14808V9.32498C3.14808 8.22244 4.1123 7.27115 5.24515 7.27115ZM5.03487 2.79672C4.68868 2.79672 4.40815 2.5131 4.40815 2.16233C4.40815 1.81008 4.68856 1.52383 5.03487 1.52383C5.3798 1.52383 5.6617 1.81008 5.6617 2.16233C5.66159 2.5131 5.37969 2.79672 5.03487 2.79672ZM13.5912 5.76225C13.3512 4.79574 12.893 4.06777 11.921 4.06777H10.6989V5.55288C10.6989 6.70267 9.69281 7.61437 8.58113 7.61437H5.24515C4.33127 7.61437 3.6057 8.45251 3.6057 9.36776V12.5483C3.6057 13.4532 4.37738 13.9857 5.26025 14.2454C6.31759 14.5562 7.31888 14.6124 8.58387 14.2454C9.42464 14.0018 10.2413 13.5119 10.2413 12.5483V11.2754H6.92349V10.8178H11.921C12.8916 10.8178 13.2535 10.1569 13.5912 9.14055C13.9398 8.09431 13.9248 7.10423 13.5912 5.76225ZM8.79129 12.1239C9.1376 12.1239 9.41812 12.4075 9.41812 12.7585C9.41812 13.1105 9.13771 13.3968 8.79129 13.3968C8.44635 13.3968 8.16457 13.1106 8.16457 12.7585C8.16457 12.4075 8.44635 12.1239 8.79129 12.1239Z" fill="white"/>
</svg>
