<svg width="16" height="15" viewBox="0 0 16 15" fill="none" xmlns="http://www.w3.org/2000/svg">
<path d="M7.839 8.92755C8.62741 8.92755 9.26655 8.28841 9.26655 7.5C9.26655 6.71159 8.62741 6.07245 7.839 6.07245C7.05058 6.07245 6.41145 6.71159 6.41145 7.5C6.41145 8.28841 7.05058 8.92755 7.839 8.92755Z" fill="white"/>
<path d="M13.2612 5.1458C12.9857 5.04562 12.6977 4.94544 12.3971 4.85778C12.4723 4.55725 12.5349 4.25671 12.585 3.96869C12.8479 2.31574 12.5599 1.15116 11.7585 0.700358C11.5206 0.562612 11.2576 0.5 10.9571 0.5C10.0805 0.5 8.96601 1.15116 7.839 2.24061C6.71199 1.15116 5.5975 0.5 4.72093 0.5C4.42039 0.5 4.15742 0.562612 3.9195 0.700358C3.11807 1.16369 2.83005 2.32826 3.09302 3.96869C3.14311 4.25671 3.20572 4.55725 3.28086 4.85778C2.98032 4.94544 2.69231 5.03309 2.41682 5.1458C0.851521 5.74687 0 6.57335 0 7.5C0 8.42665 0.864043 9.25313 2.41682 9.8542C2.69231 9.95438 2.98032 10.0546 3.28086 10.1422C3.20572 10.4428 3.14311 10.7433 3.09302 11.0313C2.83005 12.6843 3.11807 13.8488 3.9195 14.2996C4.15742 14.4374 4.42039 14.5 4.72093 14.5C5.61002 14.5 6.72451 13.8488 7.839 12.7594C8.96601 13.8488 10.0805 14.5 10.9571 14.5C11.2576 14.5 11.5206 14.4374 11.7585 14.2996C12.5599 13.8363 12.8479 12.6717 12.585 11.0313C12.5349 10.7433 12.4723 10.4428 12.3971 10.1422C12.6977 10.0546 12.9857 9.96691 13.2612 9.8542C14.8265 9.25313 15.678 8.42665 15.678 7.5C15.678 6.57335 14.8265 5.74687 13.2612 5.1458ZM11.4079 1.32648C11.9213 1.62701 12.0966 2.55367 11.8837 3.86852C11.8462 4.13148 11.7835 4.40698 11.7084 4.69499C11.0572 4.54472 10.3685 4.44454 9.64222 4.38193C9.21646 3.78086 8.77817 3.2424 8.33989 2.75402C9.26655 1.83989 10.2057 1.21377 10.9696 1.21377C11.1324 1.21377 11.2826 1.25134 11.4079 1.32648ZM10.0054 8.75224C9.77996 9.15295 9.51699 9.55367 9.2415 9.95438C8.77817 9.99195 8.31485 10.0045 7.839 10.0045C7.35063 10.0045 6.8873 9.99195 6.43649 9.95438C6.161 9.55367 5.91055 9.15295 5.68515 8.75224C5.44723 8.339 5.22182 7.91324 5.02147 7.5C5.22182 7.08676 5.44723 6.661 5.68515 6.24776C5.91055 5.84705 6.17352 5.44633 6.44902 5.04562C6.91234 5.00805 7.37567 4.99553 7.85152 4.99553C8.33989 4.99553 8.80322 5.00805 9.25402 5.04562C9.52952 5.44633 9.77996 5.84705 10.0054 6.24776C10.2433 6.661 10.4687 7.08676 10.6691 7.5C10.4562 7.91324 10.2433 8.32648 10.0054 8.75224ZM11.0447 8.339C11.2326 8.77728 11.3828 9.20304 11.5206 9.6288C11.0948 9.72898 10.644 9.80411 10.1682 9.86673C10.3184 9.6288 10.4812 9.37835 10.619 9.11538C10.7692 8.85242 10.907 8.58945 11.0447 8.339ZM7.839 11.7326C7.53846 11.407 7.25045 11.0564 6.97495 10.6932C7.26297 10.7057 7.55098 10.7182 7.839 10.7182C8.12701 10.7182 8.41503 10.7057 8.70304 10.6932C8.42755 11.0564 8.13953 11.407 7.839 11.7326ZM5.50984 9.8542C5.03399 9.79159 4.58318 9.71646 4.15742 9.61628C4.29517 9.20304 4.44544 8.76476 4.63327 8.32648C4.77102 8.57692 4.90877 8.83989 5.05903 9.09034C5.2093 9.36583 5.35957 9.60376 5.50984 9.8542ZM4.63327 6.661C4.44544 6.22272 4.29517 5.79696 4.15742 5.3712C4.58318 5.27102 5.03399 5.19589 5.50984 5.13327C5.35957 5.3712 5.19678 5.62165 5.05903 5.88461C4.90877 6.14758 4.77102 6.41055 4.63327 6.661ZM7.839 3.26744C8.13953 3.59302 8.42755 3.94365 8.70304 4.3068C8.41503 4.29428 8.12701 4.28175 7.839 4.28175C7.55098 4.28175 7.26297 4.29428 6.97495 4.3068C7.25045 3.94365 7.53846 3.59302 7.839 3.26744ZM10.619 5.89714L10.1682 5.1458C10.644 5.20841 11.0948 5.28354 11.5206 5.38372C11.3828 5.79696 11.2326 6.23524 11.0447 6.67352C10.907 6.41055 10.7692 6.14758 10.619 5.89714ZM3.79428 3.86852C3.5814 2.55367 3.75671 1.62701 4.27012 1.32648C4.39535 1.25134 4.54562 1.21377 4.70841 1.21377C5.45975 1.21377 6.39893 1.82737 7.3381 2.75402C6.89982 3.22987 6.46154 3.78086 6.03578 4.38193C5.30948 4.44454 4.62075 4.55724 3.96959 4.69499C3.89445 4.40698 3.84436 4.13148 3.79428 3.86852ZM0.701252 7.5C0.701252 6.91145 1.41503 6.28533 2.66726 5.822C2.91771 5.72182 3.1932 5.63417 3.46869 5.55903C3.66905 6.18515 3.9195 6.84884 4.22004 7.51252C3.9195 8.17621 3.65653 8.82737 3.46869 9.45349C1.74061 8.95259 0.701252 8.20125 0.701252 7.5ZM4.27012 13.6735C3.75671 13.373 3.5814 12.4463 3.79428 11.1315C3.83184 10.8685 3.89445 10.593 3.96959 10.305C4.62075 10.4553 5.30948 10.5555 6.03578 10.6181C6.46154 11.2191 6.89982 11.7576 7.3381 12.246C6.41145 13.1601 5.47227 13.7862 4.70841 13.7862C4.54562 13.7862 4.39535 13.7487 4.27012 13.6735ZM11.8837 11.1315C12.0966 12.4463 11.9213 13.373 11.4079 13.6735C11.2826 13.7487 11.1324 13.7862 10.9696 13.7862C10.2182 13.7862 9.27907 13.1726 8.33989 12.246C8.77817 11.7701 9.21646 11.2191 9.64222 10.6181C10.3685 10.5555 11.0572 10.4428 11.7084 10.305C11.7835 10.593 11.8336 10.8685 11.8837 11.1315ZM13.0107 9.178C12.7603 9.27818 12.4848 9.36583 12.2093 9.44097C12.0089 8.81485 11.7585 8.15116 11.458 7.48748C11.7585 6.82379 12.0215 6.17263 12.2093 5.54651C13.9374 6.04741 14.9767 6.79875 14.9767 7.5C14.9767 8.08855 14.2504 8.71467 13.0107 9.178Z" fill="white"/>
</svg>
