<svg width="15" height="15" viewBox="0 0 15 15" fill="none" xmlns="http://www.w3.org/2000/svg">
<path d="M10.2174 10.2776C9.18056 12.3975 7.36489 13.8237 4.96282 14.2926C4.59451 14.3829 4.21642 14.427 3.83724 14.424C2.45475 14.424 1.18747 13.8479 0.572264 12.9044C-0.253773 11.6475 -0.534879 8.98272 2.18862 7.01152C2.24392 7.31221 2.35683 7.72465 2.43171 7.96889C1.89707 8.36609 1.45945 8.87934 1.15176 9.47005C0.644844 10.4654 0.701296 11.4597 1.30153 12.379C1.71627 12.9988 2.37296 13.3756 3.21743 13.4908C4.27219 13.6243 5.34223 13.4228 6.27618 12.9147C7.74047 12.1452 8.71627 11.2258 9.35452 9.96889C9.17405 9.78239 9.06723 9.53683 9.05383 9.27765C9.04418 8.99952 9.14527 8.72893 9.33491 8.52525C9.52455 8.32157 9.78725 8.20145 10.0654 8.19124H10.1045C10.375 8.18989 10.6357 8.29257 10.8326 8.47805C11.0295 8.66353 11.1476 8.9176 11.1624 9.1877C11.1772 9.4578 11.0876 9.72326 10.9121 9.92914C10.7367 10.135 10.4888 10.2656 10.2197 10.2938L10.2174 10.2776ZM13.5204 7.95046C14.9271 9.54493 14.9651 11.4217 14.4213 12.5104C13.9144 13.5046 12.578 14.5 10.7808 14.5C9.94181 14.4829 9.11647 14.2844 8.36143 13.9182C8.62526 13.7304 8.99968 13.4297 9.2059 13.2419C9.78815 13.4942 10.4147 13.6281 11.0492 13.6359C12.2128 13.6359 13.0942 13.0922 13.6195 12.0979C13.9571 11.4412 13.9766 10.6717 13.6575 9.88364C13.2659 8.89215 12.5691 8.0509 11.6679 7.48157C10.4855 6.6845 9.09156 6.25958 7.66558 6.26152H7.32802C7.24931 6.44335 7.12126 6.5995 6.95837 6.7123C6.79548 6.82511 6.60426 6.89005 6.40636 6.89977H6.37065C6.09694 6.8964 5.83532 6.78647 5.64136 6.59331C5.4474 6.40015 5.33638 6.13899 5.33188 5.86529C5.32738 5.5916 5.42975 5.32693 5.61726 5.1275C5.80477 4.92807 6.06263 4.80959 6.33609 4.79723H6.37411C6.56467 4.79738 6.7515 4.85003 6.91409 4.94942C7.07668 5.0488 7.20874 5.19107 7.29577 5.3606H7.59646C9.99277 5.3606 12.0965 6.27995 13.5204 7.95046ZM3.98701 10.6002C3.96728 10.4089 4.01363 10.2166 4.11835 10.0553C3.06766 8.23502 2.50544 5.92742 3.36835 3.52535C3.98701 1.72005 5.54461 0.5 7.23355 0.5C9.0354 0.5 10.9121 2.07719 11.1368 5.11636C10.8557 5.02304 10.4455 4.88594 10.199 4.83525C10.1379 3.84101 9.29807 1.36406 7.30844 1.40092C6.5953 1.42051 5.54461 1.75806 5.00429 2.45161C4.33593 3.27952 3.94712 4.29792 3.89369 5.3606C3.76705 6.81771 4.10891 8.2772 4.8695 9.5265C4.91149 9.51116 4.95625 9.50487 5.00083 9.50806H5.0377C5.31636 9.50302 5.58561 9.60888 5.78622 9.80236C5.98683 9.99584 6.10236 10.2611 6.1074 10.5397C6.11244 10.8184 6.00658 11.0877 5.8131 11.2883C5.61963 11.4889 5.35438 11.6044 5.07572 11.6094H5.0377C4.76585 11.6085 4.50485 11.5026 4.30911 11.314C4.11337 11.1253 3.99799 10.8684 3.98701 10.5968V10.6002Z" fill="white"/>
</svg>
