<svg width="14" height="15" viewBox="0 0 14 15" fill="none" xmlns="http://www.w3.org/2000/svg">
<path fill-rule="evenodd" clip-rule="evenodd" d="M6.8794 0.526501C6.85409 0.541233 6.74788 0.693642 6.64328 0.865203C6.38079 1.29605 6.37784 1.29632 6.02521 0.925203C5.79579 0.683866 5.74035 0.63967 5.66642 0.640205C5.61834 0.640473 5.55767 0.656812 5.53142 0.6765C5.5053 0.696187 5.43124 0.852882 5.36696 1.02471C5.21977 1.41832 5.21267 1.43105 5.13111 1.44672C5.08089 1.45622 4.98419 1.40239 4.75237 1.23591C4.58121 1.11283 4.41326 1.01226 4.37924 1.01226C4.23808 1.01226 4.19831 1.0894 4.13108 1.49346C4.04563 2.0072 4.04858 2.00546 3.58546 1.79506C3.39849 1.71028 3.22117 1.64078 3.19131 1.64078C3.16144 1.64078 3.10479 1.67292 3.06555 1.71216C2.9943 1.78354 2.99417 1.78381 3.01359 2.17662L3.03314 2.56983L2.95881 2.60961C2.89292 2.64483 2.84752 2.64054 2.55582 2.57157C2.17507 2.48171 2.09471 2.48412 2.01757 2.58791L1.96119 2.66371L2.03686 2.98795C2.07837 3.16621 2.11842 3.3379 2.12592 3.36938C2.13328 3.40071 2.12056 3.45094 2.09752 3.4808C2.05949 3.52995 2.01904 3.53437 1.66668 3.52902C1.0703 3.51964 1.03642 3.5708 1.28284 4.10865C1.36119 4.27941 1.42534 4.4345 1.42534 4.45312C1.42534 4.55142 1.347 4.58718 1.01044 4.64209C0.822135 4.67276 0.658476 4.69793 0.64669 4.69793C0.634904 4.69793 0.599548 4.72365 0.568209 4.75499C0.465754 4.85744 0.494816 4.9536 0.72718 5.28159C1.0166 5.69007 1.01606 5.69154 0.537941 5.87449C-0.00580386 6.08247 -0.0167859 6.13377 0.397183 6.52644C0.78276 6.89206 0.783162 6.88671 0.346693 7.16112C0.0160263 7.36885 0.0109371 7.3738 0.00249972 7.48643C-0.00767876 7.62344 -0.00526813 7.62585 0.38955 7.86706C0.779948 8.10545 0.779948 8.11268 0.396782 8.47522C-0.0153127 8.86495 -0.00258958 8.92187 0.541557 9.12718C1.017 9.30651 1.01767 9.30865 0.727716 9.71713C0.563387 9.94869 0.511022 10.0451 0.511022 10.1166C0.511022 10.2504 0.580664 10.2846 0.996776 10.3545C1.34726 10.4135 1.42534 10.4482 1.42534 10.5449C1.42534 10.5648 1.36106 10.7212 1.28244 10.8923C1.03789 11.425 1.06575 11.4693 1.64458 11.4693C2.18364 11.4693 2.16931 11.4528 2.05319 11.939C1.96561 12.3054 1.96427 12.3756 2.04355 12.4547C2.10422 12.5155 2.21859 12.5087 2.57631 12.4231C2.84953 12.3579 2.89747 12.3534 2.96082 12.3872L3.03314 12.4259L3.01359 12.819C2.99417 13.212 2.9943 13.2122 3.06555 13.2836C3.10479 13.3229 3.16225 13.355 3.19305 13.355C3.22385 13.355 3.40117 13.2859 3.5872 13.2014C4.04885 12.9918 4.0459 12.99 4.13108 13.5022C4.19858 13.9081 4.23795 13.9835 4.38206 13.9835C4.41782 13.9835 4.58214 13.8871 4.74741 13.7692C5.03763 13.5622 5.1129 13.5298 5.19017 13.5789C5.21013 13.5915 5.28754 13.7616 5.36214 13.9569C5.47182 14.244 5.512 14.3187 5.57307 14.3479C5.68932 14.4036 5.76124 14.3589 6.03445 14.0613C6.36431 13.702 6.37784 13.7037 6.64717 14.1402C6.94462 14.6221 7.02163 14.621 7.32658 14.1304C7.58935 13.7078 7.58627 13.708 7.94144 14.079C8.17729 14.3252 8.22751 14.3644 8.30706 14.3644C8.35782 14.3644 8.41849 14.3454 8.44166 14.3221C8.46496 14.2988 8.54211 14.1267 8.61309 13.9397C8.68407 13.7526 8.7576 13.5898 8.77661 13.5777C8.85175 13.5299 8.92956 13.5635 9.21938 13.7692C9.39 13.8904 9.55058 13.9835 9.58875 13.9835C9.73044 13.9835 9.7816 13.8829 9.84053 13.4876C9.89089 13.1505 9.90107 13.1182 9.96736 13.0846C10.0326 13.0515 10.0717 13.0626 10.3776 13.2015C10.5636 13.2859 10.7409 13.355 10.7717 13.355C10.8025 13.355 10.8609 13.3219 10.9012 13.2815L10.9748 13.2081L10.9545 12.8311C10.9353 12.4711 10.937 12.4518 10.9944 12.3998C11.0535 12.3464 11.0595 12.3467 11.3898 12.4221C11.7897 12.5134 11.8643 12.5158 11.9394 12.4407C12.0128 12.3673 12.012 12.3512 11.9116 11.9276C11.799 11.4524 11.7838 11.4693 12.3252 11.4693C12.6941 11.4693 12.7352 11.4641 12.7822 11.4122C12.8607 11.3255 12.8421 11.2261 12.6842 10.8895C12.6045 10.72 12.5398 10.5657 12.5404 10.5467C12.5431 10.4466 12.6217 10.4125 12.985 10.3534C13.2073 10.3174 13.3737 10.2756 13.4038 10.2484C13.5048 10.1572 13.4677 10.0386 13.2372 9.71539C12.9483 9.31039 12.9495 9.30651 13.4121 9.13602C13.966 8.93191 13.9818 8.86388 13.5673 8.47C13.1834 8.10518 13.1832 8.10719 13.6038 7.84898C14.1121 7.53692 14.1129 7.46661 13.6127 7.15617C13.1826 6.88925 13.1828 6.893 13.5684 6.52684C13.982 6.1339 13.9707 6.08247 13.4268 5.87449C12.9468 5.69087 12.9454 5.68632 13.2371 5.28601C13.4108 5.04762 13.4538 4.96847 13.4538 4.88677C13.4538 4.74401 13.3897 4.712 12.9687 4.64396C12.6168 4.58718 12.5394 4.55262 12.5394 4.45258C12.5394 4.43356 12.6037 4.28048 12.6823 4.11214C12.8362 3.78254 12.8578 3.65062 12.7707 3.57174C12.724 3.52942 12.6613 3.52339 12.326 3.52888C11.9751 3.53478 11.9302 3.52982 11.8816 3.48094C11.8284 3.4275 11.8289 3.42 11.912 3.07353C12.0138 2.64898 12.0142 2.63867 11.9305 2.56005C11.8456 2.48023 11.7925 2.48157 11.4027 2.57331C11.1186 2.64028 11.0716 2.6447 11.007 2.61014L10.9338 2.5709L10.954 2.17903L10.9744 1.78729L10.9011 1.71403C10.8608 1.67372 10.8036 1.64078 10.7739 1.64078C10.7443 1.64078 10.5679 1.71082 10.382 1.79627C10.0716 1.93917 10.0382 1.94867 9.97111 1.91359C9.90415 1.8785 9.89303 1.84394 9.83584 1.4948C9.76982 1.09087 9.72897 1.01226 9.58553 1.01226C9.55152 1.01226 9.3829 1.11337 9.2108 1.23699C8.92822 1.44002 8.89032 1.45917 8.81987 1.43466C8.76161 1.4143 8.72773 1.36998 8.68635 1.25975C8.65568 1.17859 8.59702 1.02217 8.55577 0.912212C8.47246 0.690428 8.42599 0.640741 8.30117 0.640741C8.23153 0.640741 8.16845 0.69083 7.94238 0.925604C7.58707 1.29471 7.58573 1.29457 7.32444 0.866007C7.21998 0.694714 7.11083 0.541769 7.08176 0.526233C7.01641 0.491144 6.93953 0.491278 6.8794 0.526501ZM7.20324 1.81689C7.51274 2.0372 7.34814 2.5551 6.96859 2.5551C6.60029 2.5551 6.4148 2.1114 6.67784 1.85948C6.82623 1.71725 7.03904 1.69997 7.20324 1.81689ZM6.81404 3.18482C7.01694 3.26197 7.10024 3.21563 7.5635 2.76911L7.91158 2.43349L8.0589 2.45305C8.52095 2.51438 9.43995 2.91804 9.96803 3.29156C10.4532 3.63495 11.0981 4.33432 11.3729 4.81525L11.4317 4.91824L11.1714 5.50485C11.0281 5.82748 10.9109 6.12533 10.9109 6.16698C10.9109 6.26301 10.9738 6.41488 11.0345 6.4651C11.0601 6.4864 11.3032 6.60345 11.5746 6.72519L12.068 6.94671L12.0874 7.0722C12.1125 7.23572 12.1158 7.63737 12.0931 7.75148L12.0752 7.84067H11.7936C11.4669 7.84067 11.4921 7.81148 11.4744 8.21219C11.4616 8.50267 11.3914 8.66325 11.2318 8.76718C10.9717 8.93687 10.5422 8.90606 10.36 8.70477C10.332 8.67383 10.2777 8.51834 10.2391 8.3591C10.1265 7.89397 9.97513 7.63282 9.67111 7.37876C9.57509 7.29853 9.49661 7.22367 9.49661 7.21228C9.49661 7.20104 9.60214 7.11211 9.73125 7.01501C10.2013 6.66064 10.4716 6.24814 10.5013 5.83953C10.558 5.06021 9.93709 4.33379 9.01353 4.09834C8.79456 4.04249 8.70108 4.04075 5.99213 4.04075C4.45465 4.04075 3.19667 4.03071 3.19667 4.01852C3.19667 3.98973 3.53831 3.65812 3.73961 3.49179C4.29233 3.03483 5.01031 2.67523 5.75387 2.48318L6.01101 2.41662L6.37637 2.78706C6.57739 2.99076 6.7744 3.16969 6.81404 3.18482ZM2.21351 5.56833C2.38185 5.67855 2.45082 5.95551 2.35145 6.12198C2.1977 6.37966 1.80824 6.39051 1.65436 6.1414C1.43057 5.77953 1.86154 5.3377 2.21351 5.56833ZM12.1308 5.58239C12.5712 5.85091 12.2299 6.51144 11.7585 6.30292C11.4438 6.16363 11.4337 5.73346 11.7415 5.5765C11.8699 5.51101 12.0175 5.51328 12.1308 5.58239ZM3.51099 7.22648V8.86923H2.05869L2.0011 8.61932C1.88779 8.12714 1.84012 7.61795 1.86864 7.2009L1.8886 6.90787L2.38788 6.68394C2.70113 6.54359 2.90256 6.43658 2.92854 6.3968C3.04211 6.22363 3.03127 6.09988 2.87189 5.74792L2.79743 5.5836H3.51099V7.22648ZM7.6922 5.65511C8.00318 5.736 8.16751 5.9006 8.16791 6.13136C8.16818 6.30078 8.08421 6.40711 7.87595 6.50113C7.7285 6.56783 7.70506 6.56943 6.7752 6.57854L5.82526 6.58765V5.61212H6.67636C7.34118 5.61212 7.56363 5.6215 7.6922 5.65511ZM7.37131 8.0125C7.52546 8.05536 7.70774 8.18928 7.80122 8.32843C7.89939 8.47468 7.95684 8.66486 8.09291 9.29485C8.20782 9.82735 8.28175 10.0015 8.4888 10.2281C8.74527 10.5086 8.68581 10.4978 9.96696 10.4978C10.5805 10.4978 11.0823 10.5076 11.0823 10.5196C11.0823 10.5412 10.6598 11.0407 10.6416 11.0407C10.6363 11.0407 10.4156 10.9945 10.1511 10.938C9.4042 10.7785 9.37728 10.7973 9.20585 11.5977L9.09563 12.112L8.99612 12.161C8.83005 12.243 8.29032 12.4117 8.01055 12.4693C7.54823 12.5644 7.04507 12.5966 6.60284 12.5592C5.84896 12.4953 4.85067 12.2028 4.8117 12.0342C4.80339 11.9984 4.75317 11.767 4.70027 11.5198C4.64723 11.2726 4.58281 11.0381 4.5571 10.9987C4.43348 10.8101 4.30344 10.7985 3.73157 10.925C3.51501 10.973 3.32604 11.0121 3.31158 11.0121C3.28439 11.0121 2.88247 10.5473 2.88247 10.516C2.88247 10.5062 3.83711 10.4948 5.00388 10.4908L7.12529 10.4836L7.13292 9.72998C7.13828 9.19789 7.13091 8.96472 7.10788 8.93713C7.08216 8.90606 6.94529 8.89789 6.4503 8.89789H5.82526V7.98357L6.54672 7.98371C6.94342 7.98384 7.31453 7.99683 7.37131 8.0125ZM4.10242 11.4396C4.43978 11.6451 4.278 12.1838 3.87903 12.1834C3.46988 12.1831 3.31827 11.6494 3.66688 11.4368C3.7822 11.3664 3.98483 11.3678 4.10242 11.4396ZM10.2799 11.4621C10.4453 11.5833 10.5004 11.8355 10.3979 12.0034C10.1289 12.4447 9.45603 12.0939 9.68076 11.6296C9.79125 11.4015 10.0849 11.3193 10.2799 11.4621Z" fill="white"/>
</svg>
