<svg width="14" height="15" viewBox="0 0 14 15" fill="none" xmlns="http://www.w3.org/2000/svg">
<path d="M7 3.5C5.1333 3.5 3.96703 4.43297 3.5 6.29967C4.19978 5.36659 5.0167 5.0167 5.94978 5.25C6.48255 5.38278 6.86328 5.76909 7.28492 6.19719C7.97114 6.89358 8.76542 7.69978 10.5 7.69978C12.3666 7.69978 13.533 6.7667 14 4.89956C13.3001 5.83319 12.4833 6.18308 11.5501 5.94978C11.0175 5.81689 10.6372 5.43069 10.215 5.00259C9.52919 4.3062 8.73512 3.5 7 3.5ZM3.5 7.69978C1.63341 7.69978 0.467031 8.63286 0 10.5C0.699781 9.56637 1.51659 9.21648 2.44978 9.44978C2.98255 9.58267 3.36328 9.96888 3.78492 10.397C4.47114 11.0934 5.26542 11.8996 7 11.8996C8.86659 11.8996 10.033 10.9666 10.5 9.09989C9.80011 10.033 8.9833 10.3829 8.05011 10.1496C7.51745 10.0168 7.13716 9.63047 6.71497 9.20238C6.02919 8.50598 5.23513 7.69978 3.5 7.69978Z" fill="white"/>
</svg>
