<svg width="14" height="15" viewBox="0 0 14 15" fill="none" xmlns="http://www.w3.org/2000/svg">
<path d="M0 7.5V14.5H14V0.5H0V7.5ZM11.2818 6.94C11.6171 7.01781 11.9218 7.19319 12.1576 7.444C12.2874 7.57912 12.4002 7.72957 12.4936 7.892C12.4936 7.90992 11.8888 8.31872 11.5203 8.5472C11.5069 8.55616 11.4531 8.49792 11.3938 8.40944C11.3265 8.29337 11.2309 8.19624 11.116 8.1271C11.001 8.05796 10.8704 8.01908 10.7363 8.01408C10.3118 7.98496 10.0386 8.20784 10.0408 8.57408C10.0373 8.66526 10.0582 8.75573 10.1013 8.83616C10.1942 9.02992 10.3678 9.14528 10.9122 9.38048C11.9146 9.81168 12.3435 10.0962 12.6101 10.5005C12.908 10.9485 12.9741 11.672 12.7725 12.2074C12.5485 12.7898 11.9997 13.1851 11.2235 13.3162C10.869 13.3568 10.5108 13.353 10.1573 13.305C9.61768 13.2174 9.11992 12.9605 8.736 12.5714C8.6072 12.4291 8.35632 12.0584 8.372 12.0315C8.41289 12.0012 8.45593 11.9738 8.5008 11.9498L9.016 11.6541L9.41808 11.4211L9.50208 11.5454C9.64384 11.7482 9.82425 11.921 10.033 12.0539C10.481 12.2891 11.0925 12.2566 11.3949 11.9845C11.4964 11.8848 11.5598 11.7526 11.5739 11.611C11.588 11.4693 11.552 11.3273 11.4722 11.2094C11.3602 11.0538 11.1362 10.9227 10.5101 10.6494C9.78768 10.3381 9.47632 10.1454 9.19184 9.83856C9.01425 9.63605 8.88312 9.39713 8.80768 9.13856C8.75141 8.84315 8.74308 8.54061 8.78304 8.24256C8.932 7.5448 9.45504 7.0576 10.2189 6.91312C10.5726 6.86935 10.9309 6.87917 11.2818 6.94224V6.94ZM7.99568 7.52688V8.10032H6.17792V13.2781H4.8888V8.0992H3.06656V7.5392C3.06167 7.34642 3.0669 7.15351 3.08224 6.96128C3.08896 6.95232 4.20224 6.94784 5.54624 6.95008H7.98896L7.99568 7.52688Z" fill="white"/>
</svg>
