<svg width="14" height="14" viewBox="0 0 14 14" fill="none" xmlns="http://www.w3.org/2000/svg">
<path d="M2 0C0.896875 0 0 0.896875 0 2V12C0 13.1031 0.896875 14 2 14H12C13.1031 14 14 13.1031 14 12V2C14 0.896875 13.1031 0 12 0H2ZM8.4625 7.57187C8.625 7.83437 9.2 8.50625 10.0719 8.50625C10.8594 8.50625 11.475 7.875 11.475 6.95312C11.475 6.03125 10.8687 5.4 10.0719 5.4C9.275 5.4 8.66875 5.92187 8.4625 7.57187ZM7.62813 6.26562C7.85625 5.3125 8.65 4.3875 10.0719 4.3875C11.4812 4.3875 12.6 5.4875 12.6 6.95625C12.6 8.425 11.4781 9.51562 10.0719 9.51562C10.0531 9.51562 10.0375 9.51562 10.0188 9.51562C10.0031 9.51562 9.98438 9.51562 9.96875 9.51562H9.96562C9.5125 9.5 9.06875 9.36562 8.6875 9.12187C8.54062 9.03438 8.40312 8.93437 8.26875 8.825L7.86875 11.275H6.71562L7.32188 7.81875C6.67188 6.90938 6.33438 5.86875 6.19063 5.32812V6.96875C6.19063 8.46875 5.2375 9.51562 3.87188 9.51562C3.18438 9.51562 2.59063 9.26562 2.15937 8.7875C1.74062 8.325 1.50937 7.67812 1.50937 6.96562V4.525H2.64062L2.63125 6.96875C2.63125 7.85625 3.08437 8.50937 3.875 8.50937C4.66563 8.50937 5.06875 7.85625 5.06875 6.96875V4.525H7.03125C7.18125 5.12813 7.37187 5.77812 7.63125 6.2625L7.62813 6.26562Z" fill="white"/>
</svg>
