<svg width="15" height="15" viewBox="0 0 15 15" fill="none" xmlns="http://www.w3.org/2000/svg">
<path d="M0.134055 5.3821C0.134055 5.3821 -0.209451 5.13347 0.203278 4.80188L1.16423 3.94011C1.16423 3.94011 1.43954 3.64971 1.73039 3.90288L10.6017 10.6355V13.864C10.6017 13.864 10.5973 14.371 9.94843 14.3152L0.134055 5.3821Z" fill="white"/>
<path d="M2.42103 7.46289L0.134055 9.54673C0.134055 9.54673 -0.10085 9.72183 0.134055 10.0353L1.19578 11.0029C1.19578 11.0029 1.44793 11.2747 1.82083 10.9657L4.24467 9.123L2.42103 7.46289ZM6.43541 7.48014L10.6289 4.27033L10.6017 1.05917C10.6017 1.05917 10.4227 0.358314 9.82519 0.723381L4.24467 5.81424L6.43541 7.48014Z" fill="white"/>
<path d="M9.94832 14.3192C10.1917 14.5692 10.487 14.4871 10.487 14.4871L13.7549 12.8732C14.1733 12.5872 14.1148 12.2326 14.1148 12.2326V2.59298C14.1148 2.16913 13.6822 2.02285 13.6822 2.02285L10.8496 0.654158C10.2308 0.270707 9.82519 0.723381 9.82519 0.723381C9.82519 0.723381 10.3464 0.346966 10.6017 1.05928V13.8051C10.6017 13.8928 10.5831 13.9787 10.5459 14.0563C10.4715 14.2075 10.3092 14.348 9.92131 14.2891L9.94832 14.3192Z" fill="white"/>
</svg>
